<svg xmlns="http://www.w3.org/2000/svg" viewBox="0 0 1100 1000" width="1100" height="1000">
  <defs>
    <style>
      text { font-family: 'Segoe UI', system-ui, -apple-system, sans-serif; }
    </style>
    <filter id="shadow" x="-10%" y="-10%" width="130%" height="130%">
      <feDropShadow dx="0" dy="2" stdDeviation="3" flood-opacity="0.12"/>
    </filter>
    <marker id="arrowGreen" markerWidth="8" markerHeight="6" refX="8" refY="3" orient="auto">
      <polygon points="0 0, 8 3, 0 6" fill="#2b8a3e"/>
    </marker>
    <marker id="arrowRed" markerWidth="8" markerHeight="6" refX="8" refY="3" orient="auto">
      <polygon points="0 0, 8 3, 0 6" fill="#c92a2a"/>
    </marker>
  </defs>
  <rect width="1100" height="1000" fill="#ffffff" rx="12"/>

  <text x="550" y="50" text-anchor="middle" font-size="30" font-weight="700" fill="#1e1e1e">What to Focus On Now</text>
  <text x="550" y="80" text-anchor="middle" font-size="17" fill="#868e96" font-weight="400" font-style="italic">Agents write the code &#8212; Engineers own everything around it</text>

  <text x="356" y="488" text-anchor="middle" font-size="15" font-weight="700" fill="#2b8a3e" letter-spacing="2">INPUTS</text>

  <text x="744" y="488" text-anchor="middle" font-size="15" font-weight="700" fill="#c92a2a" letter-spacing="2">OUTPUTS</text>

  <text x="550" y="130" text-anchor="middle" font-size="14" font-weight="700" fill="#495057" letter-spacing="3">TRANSVERSE</text>

  <line x1="265" y1="500" x2="447" y2="500" stroke="#2b8a3e" stroke-width="2.5" marker-end="url(#arrowGreen)"/>
  <line x1="653" y1="500" x2="835" y2="500" stroke="#c92a2a" stroke-width="2.5" marker-end="url(#arrowRed)"/>

  <polygon points="550.0,405.0 632.3,452.5 632.3,547.5 550.0,595.0 467.7,547.5 467.7,452.5" fill="#a5d8ff" stroke="#1971c2" stroke-width="2.5" filter="url(#shadow)"/>
  <text x="550" y="488" text-anchor="middle" font-size="20" font-weight="700" fill="#1971c2">AI Agents</text>
  <text x="550" y="514" text-anchor="middle" font-size="15" font-weight="600" fill="#1971c2">Code Generation</text>

  <polygon points="170.0,335.0 230.6,370.0 230.6,440.0 170.0,475.0 109.4,440.0 109.4,370.0" fill="#d8f5a2" stroke="#2f9e44" stroke-width="2" filter="url(#shadow)"/>
  <text x="170" y="397" text-anchor="middle" font-size="13" font-weight="600" fill="#2f9e44">Software</text>
  <text x="170" y="415" text-anchor="middle" font-size="13" font-weight="600" fill="#2f9e44">Architecture</text>

  <polygon points="170.0,525.0 230.6,560.0 230.6,630.0 170.0,665.0 109.4,630.0 109.4,560.0" fill="#ffd8a8" stroke="#e8590c" stroke-width="2" filter="url(#shadow)"/>
  <text x="170" y="587" text-anchor="middle" font-size="13" font-weight="600" fill="#e8590c">Product</text>
  <text x="170" y="605" text-anchor="middle" font-size="13" font-weight="600" fill="#e8590c">Thinking</text>

  <polygon points="930.0,280.0 990.6,315.0 990.6,385.0 930.0,420.0 869.4,385.0 869.4,315.0" fill="#d0bfff" stroke="#7048e8" stroke-width="2" filter="url(#shadow)"/>
  <text x="930" y="342" text-anchor="middle" font-size="13" font-weight="600" fill="#7048e8">Tech Debt</text>
  <text x="930" y="360" text-anchor="middle" font-size="13" font-weight="600" fill="#7048e8">Management</text>

  <polygon points="930.0,430.0 990.6,465.0 990.6,535.0 930.0,570.0 869.4,535.0 869.4,465.0" fill="#b2f2bb" stroke="#2b8a3e" stroke-width="2" filter="url(#shadow)"/>
  <text x="930" y="492" text-anchor="middle" font-size="13" font-weight="600" fill="#2b8a3e">Code</text>
  <text x="930" y="510" text-anchor="middle" font-size="13" font-weight="600" fill="#2b8a3e">Review</text>

  <polygon points="930.0,580.0 990.6,615.0 990.6,685.0 930.0,720.0 869.4,685.0 869.4,615.0" fill="#e599f7" stroke="#9c36b5" stroke-width="2" filter="url(#shadow)"/>
  <text x="930" y="642" text-anchor="middle" font-size="13" font-weight="600" fill="#9c36b5">QA &amp;</text>
  <text x="930" y="660" text-anchor="middle" font-size="13" font-weight="600" fill="#9c36b5">Testing</text>
  <line x1="230.0" y1="295" x2="550" y2="395" stroke="#495057" stroke-width="1" stroke-dasharray="4,4" opacity="0.2"/>

  <polygon points="230.0,150.0 290.6,185.0 290.6,255.0 230.0,290.0 169.4,255.0 169.4,185.0" fill="#ffdeeb" stroke="#c2255c" stroke-width="2" filter="url(#shadow)"/>
  <text x="230.0" y="212" text-anchor="middle" font-size="13" font-weight="600" fill="#c2255c">Self</text>
  <text x="230.0" y="230" text-anchor="middle" font-size="13" font-weight="600" fill="#c2255c">Marketing</text>
  <line x1="443.33333333333337" y1="295" x2="550" y2="395" stroke="#495057" stroke-width="1" stroke-dasharray="4,4" opacity="0.2"/>

  <polygon points="443.3,150.0 504.0,185.0 504.0,255.0 443.3,290.0 382.7,255.0 382.7,185.0" fill="#99e9f2" stroke="#0c8599" stroke-width="2" filter="url(#shadow)"/>
  <text x="443.3" y="212" text-anchor="middle" font-size="13" font-weight="600" fill="#0c8599">GEO /</text>
  <text x="443.3" y="230" text-anchor="middle" font-size="13" font-weight="600" fill="#0c8599">LLMO</text>
  <line x1="656.6666666666667" y1="295" x2="550" y2="395" stroke="#495057" stroke-width="1" stroke-dasharray="4,4" opacity="0.2"/>

  <polygon points="656.7,150.0 717.3,185.0 717.3,255.0 656.7,290.0 596.0,255.0 596.0,185.0" fill="#ffd43b" stroke="#e67700" stroke-width="2" filter="url(#shadow)"/>
  <text x="656.7" y="212" text-anchor="middle" font-size="13" font-weight="600" fill="#e67700">Technical</text>
  <text x="656.7" y="230" text-anchor="middle" font-size="13" font-weight="600" fill="#e67700">Writing</text>
  <line x1="870.0" y1="295" x2="550" y2="395" stroke="#495057" stroke-width="1" stroke-dasharray="4,4" opacity="0.2"/>

  <polygon points="870.0,150.0 930.6,185.0 930.6,255.0 870.0,290.0 809.4,255.0 809.4,185.0" fill="#c3fae8" stroke="#087f5b" stroke-width="2" filter="url(#shadow)"/>
  <text x="870.0" y="212" text-anchor="middle" font-size="13" font-weight="600" fill="#087f5b">Inference</text>
  <text x="870.0" y="230" text-anchor="middle" font-size="13" font-weight="600" fill="#087f5b">Economy</text>
  <line x1="230.0" y1="705" x2="550" y2="605" stroke="#495057" stroke-width="1" stroke-dasharray="4,4" opacity="0.2"/>

  <polygon points="230.0,710.0 290.6,745.0 290.6,815.0 230.0,850.0 169.4,815.0 169.4,745.0" fill="#a5d8ff" stroke="#1864ab" stroke-width="2" filter="url(#shadow)"/>
  <text x="230.0" y="772" text-anchor="middle" font-size="13" font-weight="600" fill="#1864ab">Agentic</text>
  <text x="230.0" y="790" text-anchor="middle" font-size="13" font-weight="600" fill="#1864ab">Orchestration</text>
  <line x1="443.33333333333337" y1="705" x2="550" y2="605" stroke="#495057" stroke-width="1" stroke-dasharray="4,4" opacity="0.2"/>

  <polygon points="443.3,710.0 504.0,745.0 504.0,815.0 443.3,850.0 382.7,815.0 382.7,745.0" fill="#ffc9c9" stroke="#e03131" stroke-width="2" filter="url(#shadow)"/>
  <text x="443.3" y="772" text-anchor="middle" font-size="13" font-weight="600" fill="#e03131">Black Box Debug</text>
  <text x="443.3" y="790" text-anchor="middle" font-size="13" font-weight="600" fill="#e03131">&amp; Observability</text>
  <line x1="656.6666666666667" y1="705" x2="550" y2="605" stroke="#495057" stroke-width="1" stroke-dasharray="4,4" opacity="0.2"/>

  <polygon points="656.7,710.0 717.3,745.0 717.3,815.0 656.7,850.0 596.0,815.0 596.0,745.0" fill="#ffec99" stroke="#e67700" stroke-width="2" filter="url(#shadow)"/>
  <text x="656.7" y="772" text-anchor="middle" font-size="13" font-weight="600" fill="#e67700">Legal &amp;</text>
  <text x="656.7" y="790" text-anchor="middle" font-size="13" font-weight="600" fill="#e67700">Compliance</text>
  <line x1="870.0" y1="705" x2="550" y2="605" stroke="#495057" stroke-width="1" stroke-dasharray="4,4" opacity="0.2"/>

  <polygon points="870.0,710.0 930.6,745.0 930.6,815.0 870.0,850.0 809.4,815.0 809.4,745.0" fill="#ffa8a8" stroke="#c92a2a" stroke-width="2" filter="url(#shadow)"/>
  <text x="870.0" y="772" text-anchor="middle" font-size="13" font-weight="600" fill="#c92a2a">Cyber-</text>
  <text x="870.0" y="790" text-anchor="middle" font-size="13" font-weight="600" fill="#c92a2a">security</text>
  <text x="550" y="890" text-anchor="middle" font-size="14" font-weight="700" fill="#495057" letter-spacing="3">TRANSVERSE</text>
</svg>